<?xml version="1.0" encoding="UTF-8" standalone="no"?>
<!DOCTYPE svg PUBLIC "-//W3C//DTD SVG 1.1//EN" "http://www.w3.org/Graphics/SVG/1.1/DTD/svg11.dtd">
<svg version="1.1" xmlns="http://www.w3.org/2000/svg" xmlns:xlink="http://www.w3.org/1999/xlink" preserveAspectRatio="xMidYMid meet" viewBox="0 0 640 640" width="800" height="1200"><defs><path d="M0 430.23L640 430.23L640 536.93L0 536.93L0 430.23Z" id="a7PgygFqYl"></path><path d="M0 537.02L640 537.02L640 643.72L0 643.72L0 537.02Z" id="b9bhBbQ7z"></path><path d="M0 216.74L640 216.74L640 323.44L0 323.44L0 216.74Z" id="c9CJDTN9"></path><path d="M0 323.53L640 323.53L640 430.23L0 430.23L0 323.53Z" id="c3L0z1f4o1"></path><path d="M0 0L640 0L640 108.32L0 108.32L0 0Z" id="a4nGrYHn3"></path><path d="M0 108.41L640 108.41L640 216.74L0 216.74L0 108.41Z" id="ae2bthZrG"></path><path d="M500.88 13.89C500.88 102.19 426.49 173.89 334.85 173.89C243.22 173.89 168.82 102.19 168.82 13.89C168.82 -74.42 243.22 -146.11 334.85 -146.11C426.49 -146.11 500.88 -74.42 500.88 13.89Z" id="f5SSP285P"></path><path d="M125.58 406.19L544.13 406.19L544.13 640L125.58 640L125.58 406.19Z" id="c2BpCmaeWC"></path><path d="M213.72 518.8L455.99 518.8L455.99 640L213.72 640L213.72 518.8Z" id="dct1wreAZ"></path><path d="M334.85 475.33C334.85 478.09 332.61 480.33 329.85 480.33C327.1 480.33 324.85 478.09 324.85 475.33C324.85 472.57 327.1 470.33 329.85 470.33C332.61 470.33 334.85 472.57 334.85 475.33Z" id="anCVKVqIT"></path></defs><g><g><g><use xlink:href="#a7PgygFqYl" opacity="1" fill="#40a41e" fill-opacity="1"></use><g><use xlink:href="#a7PgygFqYl" opacity="1" fill-opacity="0" stroke="#5263a7" stroke-width="0" stroke-opacity="1"></use></g></g><g><use xlink:href="#b9bhBbQ7z" opacity="1" fill="#62e136" fill-opacity="1"></use><g><use xlink:href="#b9bhBbQ7z" opacity="1" fill-opacity="0" stroke="#5263a7" stroke-width="0" stroke-opacity="1"></use></g></g><g><use xlink:href="#c9CJDTN9" opacity="1" fill="#40a41e" fill-opacity="1"></use><g><use xlink:href="#c9CJDTN9" opacity="1" fill-opacity="0" stroke="#5263a7" stroke-width="0" stroke-opacity="1"></use></g></g><g><use xlink:href="#c3L0z1f4o1" opacity="1" fill="#62e136" fill-opacity="1"></use><g><use xlink:href="#c3L0z1f4o1" opacity="1" fill-opacity="0" stroke="#5263a7" stroke-width="0" stroke-opacity="1"></use></g></g><g><use xlink:href="#a4nGrYHn3" opacity="1" fill="#40a41e" fill-opacity="1"></use><g><use xlink:href="#a4nGrYHn3" opacity="1" fill-opacity="0" stroke="#5263a7" stroke-width="0" stroke-opacity="1"></use></g></g><g><use xlink:href="#ae2bthZrG" opacity="1" fill="#62e136" fill-opacity="1"></use><g><use xlink:href="#ae2bthZrG" opacity="1" fill-opacity="0" stroke="#5263a7" stroke-width="0" stroke-opacity="1"></use></g></g><g><use xlink:href="#f5SSP285P" opacity="1" fill="#3ca419" fill-opacity="0"></use><g><use xlink:href="#f5SSP285P" opacity="1" fill-opacity="0" stroke="#ffffff" stroke-width="3" stroke-opacity="1"></use></g></g><g><use xlink:href="#c2BpCmaeWC" opacity="1" fill="#3ca418" fill-opacity="0"></use><g><use xlink:href="#c2BpCmaeWC" opacity="1" fill-opacity="0" stroke="#ffffff" stroke-width="3" stroke-opacity="1"></use></g></g><g><use xlink:href="#dct1wreAZ" opacity="1" fill="#3ca418" fill-opacity="0"></use><g><use xlink:href="#dct1wreAZ" opacity="1" fill-opacity="0" stroke="#ffffff" stroke-width="3" stroke-opacity="1"></use></g></g><g><use xlink:href="#anCVKVqIT" opacity="1" fill="#fafafa" fill-opacity="1"></use></g></g></g></svg>